<svg height="511pt" viewBox="0 -30 511.9999 511" width="511pt" xmlns="http://www.w3.org/2000/svg"><path d="m15 390.5h339.5l40.5 54c2.832031 3.777344 7.277344 6 12 6s9.167969-2.222656 12-6l90-120c3.410156-4.546875 3.957031-10.625 1.414062-15.707031-2.539062-5.082031-7.730468-8.292969-13.414062-8.292969h-30v-105c0-8.285156-6.714844-15-15-15h-30c0-15.308594 0-144.242188 0-165 0-8.285156-6.714844-15-15-15h-392c-8.285156 0-15 6.714844-15 15v360c0 8.285156 6.714844 15 15 15zm15-30v-90h317v30h-30c-5.683594 0-10.875 3.210938-13.414062 8.292969-2.542969 5.082031-1.996094 11.160156 1.414062 15.707031l27 36zm422-30h15l-60 80-60-80h15c8.285156 0 15-6.714844 15-15v-105h60v105c0 8.285156 6.714844 15 15 15zm-90-150c-8.285156 0-15 6.714844-15 15v45h-317v-90h362v30zm-332-150h362v90h-362zm0 0"/><path d="m90 315.5c0 8.285156-6.714844 15-15 15s-15-6.714844-15-15 6.714844-15 15-15 15 6.714844 15 15zm0 0"/><path d="m150 315.5c0 8.285156-6.714844 15-15 15s-15-6.714844-15-15 6.714844-15 15-15 15 6.714844 15 15zm0 0"/><path d="m90 195.5c0 8.285156-6.714844 15-15 15s-15-6.714844-15-15 6.714844-15 15-15 15 6.714844 15 15zm0 0"/><path d="m150 195.5c0 8.285156-6.714844 15-15 15s-15-6.714844-15-15 6.714844-15 15-15 15 6.714844 15 15zm0 0"/><path d="m90 75.5c0 8.285156-6.714844 15-15 15s-15-6.714844-15-15 6.714844-15 15-15 15 6.714844 15 15zm0 0"/><path d="m150 75.5c0 8.285156-6.714844 15-15 15s-15-6.714844-15-15 6.714844-15 15-15 15 6.714844 15 15zm0 0"/></svg>