<?xml version="1.0" encoding="iso-8859-1"?>
<!-- Generator: Adobe Illustrator 16.0.0, SVG Export Plug-In . SVG Version: 6.00 Build 0)  -->
<!DOCTYPE svg PUBLIC "-//W3C//DTD SVG 1.1//EN" "http://www.w3.org/Graphics/SVG/1.1/DTD/svg11.dtd">
<svg version="1.1" id="Capa_1" xmlns="http://www.w3.org/2000/svg" xmlns:xlink="http://www.w3.org/1999/xlink" x="0px" y="0px"
	 width="45.417px" height="45.418px" viewBox="0 0 45.417 45.418" style="enable-background:new 0 0 45.417 45.418;"
	 xml:space="preserve">
<g>
	<g>
		<path d="M32.864,6.006c0,2.589-7.918,5.365-10.161,6.717c-2.558,1.54-4.861,3.485-6.961,5.596
			c-2.418,2.429-4.359,5.365-5.655,8.538c-0.209,0.511-0.381,1.105-0.408,1.32c-0.016,0.13-0.032,0.26-0.048,0.39
			c-0.022,0.183,0.062,0.318,0.215,0.412c0.871,0.527,1.361,0.276,2.239-0.193c4.247-2.278,7.418-4.988,12.239-6.233
			c3.417-0.882,7.489-1.743,8.649,2.491c0.258,0.94,0.723,1.632,1.864,1.325c2.734-0.732,5.433-5.004,7.271-6.896
			c1.629-1.677,4.862-4.014,2.438-6.439c-2.712-2.712-5.424-5.424-8.136-8.136C35.065,3.554,32.864,3.768,32.864,6.006z
			 M13.498,23.79c1.076-1.807,2.378-3.475,3.825-5.033c1.873-2.017,3.978-3.473,6.181-4.728c0.479-0.273,0.565-0.161,0.17,0.226
			c-0.73,0.716-2.344,2.273-6.319,6.073c-1.245,1.24-2.455,2.443-3.643,3.626C13.321,24.343,13.215,24.264,13.498,23.79z
			 M37.017,8.09c0.261,0.261,0.352,0.583,0.202,0.722c-0.148,0.138-0.106,0.191,0.076,0.086s0.636,0.106,1.026,0.496
			c1.547,1.547,3.094,3.094,4.64,4.64c2.004,2.004-4.034,6.647-5.086,7.73c-0.014,0.015-0.027,0.028-0.042,0.042
			c-0.023,0.023-0.125-0.012-0.235-0.07c-0.108-0.06-0.521,0.223-0.914,0.611c-0.335,0.331-0.67,0.664-1.005,0.997
			c-0.392,0.39-0.774,0.26-0.961-0.262c-0.232-0.656-0.589-1.335-0.961-1.756c-1.457-1.647-6.568-0.494-8.281-0.212
			c-1.926,0.318-3.764,0.935-5.592,1.599c-0.932,0.338-4.249,1.677-6.371,3.028c-0.466,0.297-0.508,0.251-0.124-0.146
			c4.048-4.178,8.01-8.246,11.812-12.139c0.386-0.395,1.097-0.919,1.59-1.167c0.55-0.278,1.102-0.555,1.655-0.835
			c0.492-0.249,0.576-0.136,0.188,0.258c-1.185,1.202-2.371,2.403-3.553,3.61c-0.386,0.394-0.369,0.412,0.038,0.039
			c1.39-1.275,2.783-2.551,4.175-3.821c0.182-0.183,0.365-0.365,0.547-0.547c0.303-0.303,0.944-0.757,1.425-1.026
			c0.758-0.425,1.51-0.872,2.25-1.356c0.689-0.45,0.989-0.966,1.107-1.433c0.135-0.536,0.087-1.044,0.148-1.105
			c0.062-0.062,0.329,0.098,0.593,0.363c0.134,0.136,0.292,0.295,0.478,0.48c0.029,0.029,0.058,0.058,0.086,0.086
			c0.047,0.048-0.002,0.166-0.111,0.264l-0.196,0.176L34.699,8.42c-3.119,2.762-0.984,0.833-2.397,2.082
			c-0.196,0.187-0.416,0.396-0.653,0.62c-0.36,0.342-0.262,0.407,0.231,0.158c0.19-0.096,0.382-0.191,0.577-0.286
			c0.497-0.242,1.231-0.732,1.637-1.107c0.554-0.513,1.129-1.044,1.717-1.589C36.217,7.922,36.757,7.829,37.017,8.09z"/>
		<path d="M38.958,39.796c0.788-1.066,0.344-3.552,0.344-4.704c0-2.319,0.481-5.11-0.388-7.294c-0.216-0.542-1.224-0.169-1.559,0
			c-2.059,1.038-3.479,3.076-4.302,5.191c-0.622,1.604-0.268,2.438-2.039,2.438c-1.311,0-2.622,0-3.933,0c-6.275,0-12.55,0-18.825,0
			c-3.101,0-2.098-17.042-0.728-17.042c2.449,0,4.758-0.229,6.576-2.081c0.922-0.94,2.392-2.167,1.768-2.961
			c-0.341-0.435-0.927-0.535-1.028-0.555c-0.053-0.011-0.114-0.018-0.184-0.021c-0.05-0.002-0.074-0.006-0.107-0.006
			c-3.711,0-7.734-0.479-11.409,0.017c-3.652,0.493-3.106,3.62-3.106,6.435c0,5.386,0,10.771,0,16.156
			c0,2.493-0.6,5.934,2.928,5.934c9.84,0,19.681,0,29.521,0C34.639,41.303,37.484,41.792,38.958,39.796z M34.799,33.902
			c0.392-1.388,0.914-2.802,1.79-3.937c0.338-0.437,0.785-0.308,0.868,0.238c0.012,0.075,0.022,0.151,0.032,0.228
			c0.071,0.549-0.22,1.315-0.605,1.712c-0.519,0.531-1.039,1.064-1.558,1.598c-0.387,0.395-0.656,0.593-0.608,0.438
			C34.746,34.09,34.772,33.998,34.799,33.902z M2.005,15.385c0.183-0.942,0.502-1.582,1.041-1.582c0.245,0,0.489,0,0.733,0
			c0.405,0,0.413,0.312,0.018,0.697c-0.398,0.389-0.801,0.781-1.21,1.179C2.191,16.064,1.9,15.928,2.005,15.385z M4.58,13.803
			c0.015,0-0.294,0.312-0.691,0.696c-0.416,0.403-0.853,0.826-1.308,1.267c-0.396,0.385-0.405,0.376-0.014-0.014
			c0.414-0.413,0.841-0.832,1.27-1.251C4.231,14.116,4.564,13.803,4.58,13.803z M5.335,17.338c-0.925,0.935-1.85,1.868-2.774,2.803
			c-0.388,0.393-0.726,0.264-0.745-0.289c-0.008-0.231-0.015-0.467-0.019-0.705c-0.011-0.553,0.306-1.318,0.693-1.713
			c0.958-0.979,1.912-1.95,2.863-2.918c0.387-0.396,1.148-0.713,1.7-0.713c1.856,0,3.711,0,5.567,0c0.552,0,1.459,0.323,1.195,0.809
			c-0.335,0.616-1.176,1.347-1.249,1.421c-0.939,0.957-2.264,1.312-3.556,1.312c-1.011,0-1.834,0.028-2.806,0.428
			c-1.34,0.551-1.588,1.815-1.604,3.1c-0.007,0.553-0.3,1.314-0.693,1.702c-0.408,0.402-0.816,0.806-1.226,1.21
			c-0.393,0.389-0.712,0.353-0.712-0.08c0-0.261,0-0.521,0-0.783c0-0.144-0.015-0.421-0.037-0.786
			c-0.025-0.434,0.28-1.093,0.681-1.473c0.904-0.856,1.806-1.715,2.706-2.58c0.398-0.382,0.72-0.863,0.72-1.074
			S5.725,16.946,5.335,17.338z M3.979,29.243c-0.15,0.142-0.592,0.571-0.981,0.963c-0.109,0.109-0.217,0.219-0.326,0.328
			c-0.389,0.392-0.704,0.407-0.704,0.035c0-0.373,0.318-0.989,0.711-1.377c0.307-0.303,0.613-0.604,0.919-0.907
			c0.393-0.388,0.693-0.389,0.676-0.002C4.259,28.67,4.129,29.101,3.979,29.243z M4.254,30.61c0.018,0.552-0.247,1.326-0.624,1.729
			c-0.325,0.349-0.651,0.693-0.977,1.04c-0.378,0.402-0.685,0.281-0.685-0.271c0-0.233,0-0.467,0-0.701
			c0-0.552,0.318-1.316,0.71-1.705c0.287-0.285,0.573-0.57,0.86-0.854c0.392-0.39,0.697-0.257,0.705,0.296
			C4.246,30.298,4.249,30.455,4.254,30.61z M3.717,26.84c-0.351,0.362-0.701,0.725-1.052,1.086
			c-0.384,0.397-0.696,0.317-0.696-0.178c0-0.496,0.311-1.219,0.695-1.615c0.407-0.419,0.81-0.834,1.209-1.246
			c0.385-0.396,0.663-0.279,0.619,0.261C4.448,25.687,4.101,26.444,3.717,26.84z M7.29,40.262c-0.552,0-0.97-0.029-0.933-0.066
			c0.037-0.037-0.009-0.169-0.081-0.309c-0.072-0.139-0.267-0.116-0.456,0.059c-0.19,0.175-0.414,0.316-0.5,0.316
			c-0.052,0-0.104,0-0.156,0c-0.29,0-0.552-0.02-0.79-0.056c-0.433-0.064-0.434-0.498-0.023-0.868
			c0.316-0.284,0.632-0.567,0.948-0.854c0.41-0.37,0.741-1.032,0.741-1.477c0-0.442-0.328-0.498-0.732-0.121
			c-0.632,0.59-1.264,1.18-1.896,1.77c-0.404,0.376-1.021,0.324-1.188-0.202c-0.196-0.618-0.256-1.377-0.256-2.25
			c0-0.148,0-0.298,0-0.447c0-0.246,0.327-0.753,0.729-1.131c0.353-0.332,0.707-0.665,1.063-0.998
			c0.403-0.378,0.803-0.242,0.97,0.285c0.482,1.521,1.388,2.557,3.006,2.557c6.707,0,13.415,0,20.121,0
			c1.343,0,2.817,0.152,4.185-0.092c0.543-0.098,1.104-0.254,1.273-0.254c0.171,0,0.628-0.312,1.023-0.7l1.546-1.515
			c0.343-0.345,0.687-0.689,1.029-1.035c0.389-0.393,0.714-0.262,0.703,0.29c-0.011,0.489-0.031,0.981-0.059,1.47
			c-0.029,0.553-0.171,1.105-0.309,1.238c-0.137,0.133-0.139,0.233-0.008,0.205c0.131-0.029,0.204,0.383,0.175,0.935
			c-0.028,0.538-0.048,1.061-0.048,1.558c0,2.838-5.185,1.693-7.027,1.693C22.659,40.262,14.975,40.262,7.29,40.262z"/>
	</g>
</g>
<g>
</g>
<g>
</g>
<g>
</g>
<g>
</g>
<g>
</g>
<g>
</g>
<g>
</g>
<g>
</g>
<g>
</g>
<g>
</g>
<g>
</g>
<g>
</g>
<g>
</g>
<g>
</g>
<g>
</g>
</svg>
